<?xml version="1.0" standalone="no"?>
<!DOCTYPE svg PUBLIC "-//W3C//DTD SVG 20010904//EN"
 "http://www.w3.org/TR/2001/REC-SVG-20010904/DTD/svg10.dtd">
<svg version="1.0" xmlns="http://www.w3.org/2000/svg"
 width="200.000000pt" height="200.000000pt" viewBox="0 0 200.000000 200.000000"
 preserveAspectRatio="xMidYMid meet">
<metadata>
Created by potrace 1.11, written by Peter Selinger 2001-2013
</metadata>
<g transform="translate(0.000000,200.000000) scale(0.100000,-0.100000)"
fill="#000000" stroke="none">
<path d="M1048 1565 c-3 -3 -32 -7 -66 -10 -34 -3 -93 -12 -130 -20 -37 -9
-85 -18 -107 -21 -21 -3 -44 -8 -50 -12 -5 -3 -19 -8 -30 -9 -11 -2 -31 -8
-45 -13 -14 -6 -34 -12 -45 -15 -89 -20 -306 -122 -399 -188 -33 -23 -79 -66
-103 -95 l-43 -53 0 -144 c0 -79 4 -155 10 -169 25 -66 106 -122 190 -131 94
-10 120 -11 120 -2 0 4 5 5 12 1 7 -4 50 -9 97 -10 290 -10 392 -30 535 -103
54 -28 101 -50 105 -49 3 1 23 -6 44 -15 21 -9 41 -16 45 -15 4 1 32 -6 62
-15 84 -25 106 -28 225 -33 180 -6 295 32 391 132 28 29 64 79 80 111 l29 58
0 195 c0 146 -4 203 -14 225 -8 17 -15 35 -17 42 -3 17 -70 113 -104 150 -76
83 -218 156 -366 189 -73 16 -414 31 -426 19z"/>
</g>
</svg>
