<svg id="Layer_1" data-name="Layer 1" xmlns="http://www.w3.org/2000/svg" viewBox="0 0 115 69.06">
  <title>meat-loader</title>
  <g>
    <path d="M114.94,39.33c-0.38,3.3.7,7.36-.76,11.27-4,10.68-13,17-24.88,17.39a63.17,63.17,0,0,1-32.24-7.66c-6.54-3.51-13.38-4.77-20.52-5.43s-14.1-.76-21.16-1A23.38,23.38,0,0,1,9,53.09c-5.75-1.81-8.84-6-8.84-12A77.67,77.67,0,0,0,.08,32.3c-0.52-4.54,1.58-7.72,4.69-10.51,5.25-4.7,11.4-7.94,17.86-10.59C41.06,3.65,60.11-.1,80.08,2.08,87.67,2.91,94.93,5,101.23,9.43c8.8,6.24,14.36,14.34,13.72,25.69C114.88,36.29,114.94,37.47,114.94,39.33ZM103.25,52.78l0,0a31.56,31.56,0,0,0-8.88,2.81H92L85,56.28l-3.13-.14c-3.33-1.59-7-2-10.51-3L64,49.07a3.6,3.6,0,0,0-2.62-1.74,38.13,38.13,0,0,0-14.7-5.8c-7.92-1.93-15.89-1.37-23.86-.42a2,2,0,0,0-.65.83,9.53,9.53,0,0,0-4.12-.47l-5.64-.53-2.8,0C8.38,39.25,6.16,39.29,4.66,38c-0.82-.69-1.07,0-1.21.83-0.94,5.27,1.08,8.9,6.1,10.85a26.34,26.34,0,0,0,10.66.66l1,0a1.13,1.13,0,0,0,1.26.47c5.48-.35,10.92,1.3,16.41.3,2.63,1.75,5.65,1.29,8.55,1.55C51.92,54,56,56.27,60.2,58.14a49,49,0,0,0,12.54,4.49c1.83,0.4,3.57,1.77,5.61.92h0.23L78.8,63.6a24.84,24.84,0,0,0,15,.16l1,0c3.4-.74,6.67-1.74,9-4.6l1-.61c4.08-3.48,6.35-7.87,7.07-14l-5.84,5.79L103.29,52ZM91.38,8.56A0.65,0.65,0,0,0,90.58,8a9.33,9.33,0,0,0-3.92-1.24A42.17,42.17,0,0,0,75.11,5c-2.25-.1-4.5-0.35-6.75-0.28A118.66,118.66,0,0,0,18.22,16.94C13.74,19.16,9.4,21.68,5.9,25.36c-3.25,3.41-2.58,8,1.46,10.45a13.22,13.22,0,0,0,4.1,1.56c7.26,1.55,14.44,0,21.65-.56l8.27,0.44a61.59,61.59,0,0,1,20.86,6.11A14.28,14.28,0,0,0,66.43,46c2,2.61,5.07,3.17,7.88,4.23a34,34,0,0,0,24.77.12c8.54-3.28,13.2-10.65,12.28-19.44,0.24-3.27-1.09-6.13-2.63-8.84-3.92-6.87-9.48-11.73-17.37-13.56h0Z" style="fill: #77242f"/>
    <path d="M75.11,5A42.17,42.17,0,0,1,86.66,6.75a2.39,2.39,0,0,0,.6,2.45c2.92,2.22,2.71,5.07,2,8.19C88.77,19.26,89,21,91,22.18c2.83,1.61,3.09,2.84.9,5.22a16.18,16.18,0,0,0-3.55,6.3,6.12,6.12,0,0,1-1.55,2.77C81.5,41.06,75.5,43.94,68.17,43c-2-.26-4-1-5.93.36a61.59,61.59,0,0,0-20.86-6.11c-1.16-2.36.43-3.31,2.14-4.27s3.7-.89,5.27-2.5c-7.32-.23-7.31-0.22-12.66,3.68a28.66,28.66,0,0,1-3.05,1.71l-0.88,0c-3.38-.08-4.66-1.05-4.56-3.56,0.12-3.08,2.46-2.55,4.33-2.48a9.45,9.45,0,0,0,6.84-2.84c-3.62.91-6.76-.58-10.06-1.4a7.24,7.24,0,0,0-5.34,1.22c-1.18.7-2.32,1.47-3.54,2.09A5.78,5.78,0,0,1,14,29c-1-.6-2.26-1.23-2-2.62s1.66-1.76,3-1.84c1.61-.09,3.33.32,4.74-0.92-0.95-.83-3,0-3.07-1.72-0.08-1.34,1.48-2.15,2.5-2,3,0.4,5.49-1.86,8.48-1-0.65-3.09.2-3.9,3.08-3.06,1.09,0.32,1.83.7,2.67-.63,1.19-1.89,3-1.66,4.56-.39,1.07,0.85,1.91,2,3,2.76,0.68,0.45,1.4,2,2.29,1,1.06-1.25-.8-1.38-1.36-2C41,15.64,39.84,15,40.36,13.39a3.61,3.61,0,0,1,3-2.45,14.83,14.83,0,0,1,2.34-.18,15,15,0,0,0,7.58-1.82,5.78,5.78,0,0,1,6.9.39,5.82,5.82,0,0,0,5.46,1.34,3,3,0,0,1,3.71,1.64c1.51,3.17,4.34,3.37,7.43,3.37-3-1.43-6.28-2.43-6.68-6.37-0.18-1.92.62-2.78,2.62-2.55,0.9,0.1,2,.23,2.15-1.16ZM76,23.26A4.2,4.2,0,0,0,73.88,20c-4.05-2.73-8.42-2.72-12.83-1.27C57.25,20,56,22,56.28,25.64c-0.1,2.49,1.33,4,3.34,5a14.58,14.58,0,0,0,10,1.2C74.8,30.85,76.35,28.64,76,23.26ZM75.21,35.4c3.27-.14,6.6-3.38,6.61-5.77a0.93,0.93,0,0,0-.44-1,0.62,0.62,0,0,0-.92.43C80.26,32.15,77.62,33.3,75.21,35.4ZM53.75,27c-0.44,2.6,1.93,6,4.16,6.51a0.76,0.76,0,0,0,1-.26,0.71,0.71,0,0,0-.39-1C56.1,31.31,54.87,29.27,53.75,27Zm-2.52,1.77A4.39,4.39,0,0,0,54,34C53.39,32.12,51.93,30.68,51.23,28.79ZM78.49,27a9,9,0,0,1-2.41,3.77,0.72,0.72,0,0,0-.2,1,0.69,0.69,0,0,0,1,.08C78.48,30.65,79.35,29.16,78.49,27Z" style="fill: #ef5f5f"/>
    <path d="M75.11,5l-0.21.61c-1.44.06-2.89,0.05-4.33,0.18-1.59.14-4.11-.87-4.32,1.47-0.18,2.14,2.47,1.48,3.88,2.06,0.39,3.94,3.72,4.95,6.68,6.37-3.09,0-5.92-.2-7.43-3.37a3,3,0,0,0-3.71-1.64,5.82,5.82,0,0,1-5.46-1.34,5.78,5.78,0,0,0-6.9-.39,15,15,0,0,1-7.58,1.82,14.83,14.83,0,0,0-2.34.18,3.61,3.61,0,0,0-3,2.45c-0.52,1.58.68,2.25,1.55,3.17,0.55,0.59,2.41.72,1.36,2-0.89,1.05-1.61-.54-2.29-1-1.12-.75-2-1.92-3-2.76-1.59-1.26-3.37-1.5-4.56.39-0.84,1.33-1.58.95-2.67,0.63-2.88-.84-3.73,0-3.08,3.06-3-.84-5.5,1.42-8.48,1-1-.14-2.57.67-2.5,2,0.1,1.69,2.12.89,3.07,1.72-1.42,1.24-3.13.82-4.74,0.92-1.33.08-2.7,0.35-3,1.84s1,2,2,2.62a5.78,5.78,0,0,0,5.89-.12c1.22-.62,2.36-1.39,3.54-2.09a7.24,7.24,0,0,1,5.34-1.22c3.29,0.82,6.44,2.32,10.06,1.4A9.45,9.45,0,0,1,32,29.79c-1.86-.07-4.21-0.6-4.33,2.48-0.09,2.51,1.18,3.48,4.56,3.56l0.88,0,0,0.94c-7.21.53-14.38,2.1-21.65,0.56a13.22,13.22,0,0,1-4.1-1.56c-4-2.43-4.71-7-1.46-10.45,3.5-3.67,7.83-6.19,12.32-8.42A118.66,118.66,0,0,1,68.36,4.69C70.6,4.63,72.86,4.87,75.11,5Z" style="fill: #f4e6d4"/>
    <path d="M62.24,43.36c1.9-1.39,3.94-.62,5.93-0.36,7.32,0.94,13.32-1.93,18.68-6.53a6.12,6.12,0,0,0,1.55-2.77,16.18,16.18,0,0,1,3.55-6.3c2.18-2.38,1.93-3.61-.9-5.22-2-1.14-2.27-2.92-1.82-4.79,0.76-3.13,1-6-2-8.19a2.39,2.39,0,0,1-.6-2.45A9.33,9.33,0,0,1,90.58,8l0.79,0.56h0c0.44,1.69,1,3.37.71,5.15a8.08,8.08,0,0,0,2.07,7,8.48,8.48,0,0,1,1.89,6c-0.1,4.57,1.72,5.93,6.18,4.89,1.79-.42,3.74-1.27,5.31.16,1.85,1.69,2.85.83,3.84-.8,0.92,8.79-3.74,16.17-12.28,19.44a34,34,0,0,1-24.77-.12,2.79,2.79,0,0,0-1.6-4c-2-.9-4.13-1.58-6.28-0.24A14.28,14.28,0,0,1,62.24,43.36Zm23.2,8.15a31.64,31.64,0,0,0,4.35-.59c5.26-1.44,10.85-2.15,14.91-6.37,3-3.13,2-7.6-2.15-9.07-4-1.4-7.83-1.06-10.93,2s-6.21,6.33-11.33,6.36c-2.35,0-3,2.54-1.35,4.36S82.53,51.85,85.44,51.51Z" style="fill: #f5e3d3"/>
    <path d="M111.36,30.95c-1,1.63-2,2.5-3.84.8-1.57-1.44-3.52-.58-5.31-0.16-4.46,1-6.28-.32-6.18-4.89a8.48,8.48,0,0,0-1.89-6,8.08,8.08,0,0,1-2.07-7c0.32-1.78-.28-3.46-0.71-5.15,7.89,1.83,13.45,6.69,17.37,13.56C110.27,24.81,111.59,27.67,111.36,30.95Z" style="fill: #ee5e5f"/>
    <path d="M22.18,41.93a2,2,0,0,1,.65-0.82c8-1,15.94-1.51,23.86.42-0.8,1.76-3.32,3.07-2.14,5.34s3.84,2.38,6.19,2.29a7,7,0,0,1,4.34,1.36c0.86,0.59,2.23,1,2.57,0,0.68-1.93,2.44-2.24,3.74-3.23A3.59,3.59,0,0,1,64,49.07c-2.74,1.33-4.24,3.24-3.35,6.51,0.21,0.75-.29,1.7-0.46,2.55C56,56.27,51.92,54,47.47,52.65c-2.34-3.09-5.61-3.32-9.07-3a4.75,4.75,0,0,0-1.64-.54c-4.24.28-8-.46-10.67-4.2l-1.21-.49Z" style="fill: #f3e4d3"/>
    <path d="M60.2,58.14c0.17-.86.67-1.8,0.46-2.55-0.89-3.27.6-5.18,3.35-6.51l7.37,4.08a8.12,8.12,0,0,0,.87,4.52c0.44,0.85,1.1,1.92,2.23,1,1.67-1.31,2-.54,2.39,1.06a26.53,26.53,0,0,0,1.49,3.78c-2,.85-3.79-0.52-5.61-0.92A49,49,0,0,1,60.2,58.14Z" style="fill: #c73338"/>
    <path d="M93.85,63.76a24.85,24.85,0,0,1-15-.16,6.09,6.09,0,0,0-.06-2.91c-0.57-2.63.5-4.14,3.15-4.56L85,56.28c1.36,0.59,2,2,3,2.89s1.69,1,1.75-.67a6.91,6.91,0,0,1,.44-1.6c2-.45,2.49.86,2.69,2.43S92.92,62.41,93.85,63.76Z" style="fill: #c8353a"/>
    <path d="M61.39,47.33c-1.3,1-3.05,1.3-3.74,3.23-0.34,1-1.7.54-2.57,0a7,7,0,0,0-4.34-1.36c-2.35.09-5,.08-6.19-2.29s1.34-3.57,2.14-5.34A38.13,38.13,0,0,1,61.39,47.33Z" style="fill: #c8353a"/>
    <path d="M26.08,44.94c2.64,3.74,6.44,4.48,10.67,4.2a4.74,4.74,0,0,1,1.64.54l0.52,1.42c-5.49,1-10.93-.66-16.41-0.3-0.23-1,.66-2.46-1.14-2.82a6.86,6.86,0,0,0-2.7-2.9c-1.46-1-1.8-2.17-.6-3.61a9.53,9.53,0,0,1,4.12.47l2.68,2.52C25,45.27,25.2,45.94,26.08,44.94Z" style="fill: #c8353a"/>
    <path d="M9.61,40.9l2.8,0c2.12,3.2,3.63,6.91,7.44,8.67a1.65,1.65,0,0,1,.35.77,26.34,26.34,0,0,1-10.66-.66c0.13-1.12-.64-2-0.85-3C8.28,44.67,7.55,42.56,9.61,40.9Z" style="fill: #c8353a"/>
    <path d="M103.83,59.2c-2.32,2.86-5.59,3.86-9,4.6-0.14-3.57,2.32-3.41,5-3.32C97.75,59,94,59.56,94.42,55.63a31.56,31.56,0,0,1,8.87-2.81A20.34,20.34,0,0,0,103.83,59.2Z" style="fill: #c8383c"/>
    <path d="M33.11,36.81l0-.94a28.55,28.55,0,0,0,3.05-1.71c5.35-3.89,5.34-3.91,12.66-3.68-1.57,1.62-3.66,1.6-5.27,2.5s-3.3,1.91-2.14,4.27Z" style="fill: #f1dbcb"/>
    <path d="M9.61,40.9c-2.06,1.66-1.33,3.77-.91,5.81,0.21,1,1,1.89.85,3-5-2-7-5.58-6.1-10.85,0.14-.8.39-1.53,1.21-0.83C6.16,39.29,8.38,39.25,9.61,40.9Z" style="fill: #f1e1d1"/>
    <path d="M81.89,56.14c-2.65.42-3.72,1.93-3.15,4.56a6.09,6.09,0,0,1,.06,2.91l-0.23-.05H78.35a26.76,26.76,0,0,1-1.48-3.79c-0.37-1.6-.72-2.37-2.39-1.06-1.12.88-1.79-.19-2.23-1a8.12,8.12,0,0,1-.87-4.52C74.88,54.17,78.56,54.54,81.89,56.14Z" style="fill: #f1dbcb"/>
    <path d="M106.07,50.41l5.84-5.79c-0.72,6.11-3,10.49-7.07,14C104.08,55.68,106.05,53.19,106.07,50.41Z" style="fill: #c73338"/>
    <path d="M20.21,50.38a1.65,1.65,0,0,0-.35-0.77c-3.81-1.76-5.33-5.47-7.44-8.67l5.64,0.53c-1.2,1.44-.86,2.64.6,3.61a6.86,6.86,0,0,1,2.7,2.9l-0.11,2.35Z" style="fill: #f1dbcb"/>
    <path d="M94.42,55.63C94,59.56,97.75,59,99.83,60.48c-2.66-.09-5.13-0.25-5,3.32l-1,0c-0.93-1.35-.74-2.93-0.93-4.43s-0.66-2.87-2.69-2.43L92,55.64h2.45Z" style="fill: #f1dbcb"/>
    <path d="M66.43,46c2.15-1.34,4.24-.66,6.28.24a2.79,2.79,0,0,1,1.6,4C71.5,49.21,68.41,48.65,66.43,46Z" style="fill: #ef5f5f"/>
    <path d="M38.91,51.1l-0.52-1.42c3.46-.35,6.74-0.12,9.07,3C44.57,52.4,41.54,52.85,38.91,51.1Z" style="fill: #c8383c"/>
    <path d="M106.07,50.41c0,2.78-2,5.28-1.23,8.18l-1,.61a20.36,20.36,0,0,1-.53-6.38l0,0c0.58-.23.48-0.5,0-0.79Z" style="fill: #ebc7ba"/>
    <path d="M92,55.64L90.22,56.9a6.91,6.91,0,0,0-.44,1.6c-0.05,1.71-.83,1.46-1.75.67s-1.64-2.3-3-2.89Z" style="fill: #f1e1d1"/>
    <path d="M21.25,50.33L21.36,48c1.81,0.36.92,1.82,1.14,2.82A1.13,1.13,0,0,1,21.25,50.33Z" style="fill: #c8383c"/>
    <path d="M91.38,8.56L90.58,8A0.65,0.65,0,0,1,91.38,8.56Z" style="fill: #ee5e5f"/>
    <path d="M103.29,52c0.44,0.28.54,0.55,0,.79Z" style="fill: #c8383c"/>
    <path d="M76,23.26c0.31,5.38-1.25,7.6-6.44,8.62a14.58,14.58,0,0,1-10-1.2c-2-1.08-3.44-2.55-3.34-5l1.59-.05c4.14,3.89,8.91,3.75,13.85,2A4.49,4.49,0,0,0,75,23.26H76Z" style="fill: #77242f"/>
    <path d="M76,23.26H75c-3-4.66-12.16-5.73-16.16-1.93a3.59,3.59,0,0,0-.93,4.26l-1.59.05C56,22,57.25,20,61,18.73c4.4-1.45,8.78-1.46,12.83,1.27A4.2,4.2,0,0,1,76,23.26Z" style="fill: #853039"/>
    <path d="M70.13,9.3c-1.4-.58-4.06.08-3.88-2.06,0.2-2.35,2.73-1.33,4.32-1.47C72,5.64,73.45,5.64,74.9,5.58,74.73,7,73.64,6.85,72.74,6.75,70.75,6.52,70,7.37,70.13,9.3Z" style="fill: #ee5e5f"/>
    <path d="M75.21,35.4c2.41-2.1,5.05-3.25,5.25-6.31a0.62,0.62,0,0,1,.92-0.43,0.93,0.93,0,0,1,.44,1C81.82,32,78.49,35.26,75.21,35.4Z" style="fill: #853039"/>
    <path d="M53.75,27c1.12,2.25,2.35,4.29,4.77,5.26a0.71,0.71,0,0,1,.39,1,0.76,0.76,0,0,1-1,.26C55.68,33,53.32,29.62,53.75,27Z" style="fill: #853039"/>
    <path d="M51.23,28.79c0.7,1.89,2.16,3.33,2.81,5.19A4.39,4.39,0,0,1,51.23,28.79Z" style="fill: #77242f"/>
    <path d="M78.49,27c0.86,2.14,0,3.63-1.58,4.86a0.69,0.69,0,0,1-1-.08,0.72,0.72,0,0,1,.2-1A9,9,0,0,0,78.49,27Z" style="fill: #853039"/>
    <path d="M85.44,51.51c-2.91.35-4.81-1.42-6.51-3.27s-1-4.35,1.35-4.36c5.12,0,8.13-3.15,11.33-6.36s7-3.44,10.93-2c4.15,1.47,5.16,5.95,2.15,9.07-4.06,4.22-9.66,4.93-14.91,6.37A31.64,31.64,0,0,1,85.44,51.51Z" style="fill: #f05f60"/>
    <path d="M26.08,44.94c-0.87,1-1.07.32-1.21-.49Z" style="fill: #c8383c"/>
    <path d="M57.87,25.59a3.59,3.59,0,0,1,.93-4.26c4-3.8,13.12-2.73,16.16,1.93a4.49,4.49,0,0,1-3.24,4.38C66.78,29.34,62,29.49,57.87,25.59Zm8.55,1.17c1.91-.29,4.33-0.43,4.29-2.93s-2.56-2.77-4.42-2.74-4.73.22-4.66,2.83S64.33,26.53,66.43,26.76Z" style="fill: #f1e1d1"/>
    <path d="M66.43,26.76c-2.09-.23-4.72-0.36-4.79-2.84s2.71-2.8,4.66-2.83,4.38,0.24,4.42,2.74S68.34,26.46,66.43,26.76Z" style="fill: #ef656c"/>
  </g>
</svg>
